<svg xmlns="http://www.w3.org/2000/svg" xmlns:xlink="http://www.w3.org/1999/xlink" contentStyleType="text/css" data-diagram-type="ACTIVITY" height="1450.82" preserveAspectRatio="none" style="width:865px;height:1162px;background:#FFFFFF;" version="1.1" viewBox="0 0 865 1162" width="1080" zoomAndPan="magnify"><?plantuml 1.2026.3beta5?><defs/><g><ellipse cx="606.773" cy="25" fill="#222222" rx="10" ry="10" style="stroke:#222222;stroke-width:1;"/><rect fill="#F1F1F1" height="33.9688" rx="12.5" ry="12.5" style="stroke:#181818;stroke-width:0.5;" width="188.8379" x="512.3541" y="55"/><text fill="#000000" font-family="sans-serif" font-size="12" lengthAdjust="spacing" textLength="168.8379" x="522.3541" y="76.1387">Pasang kamera di videotron</text><rect fill="#F1F1F1" height="33.9688" rx="12.5" ry="12.5" style="stroke:#181818;stroke-width:0.5;" width="240.1016" x="486.7223" y="108.9688"/><text fill="#000000" font-family="sans-serif" font-size="12" lengthAdjust="spacing" textLength="220.1016" x="496.7223" y="130.1074">Rekam aktivitas area secara kontinu</text><rect fill="#F1F1F1" height="33.9688" rx="12.5" ry="12.5" style="stroke:#181818;stroke-width:0.5;" width="169.3555" x="522.0953" y="162.9375"/><text fill="#000000" font-family="sans-serif" font-size="12" lengthAdjust="spacing" textLength="149.3555" x="532.0953" y="184.0762">Simpa​n video ke storage</text><rect fill="#F1F1F1" height="33.9688" rx="12.5" ry="12.5" style="stroke:#181818;stroke-width:0.5;" width="236.5449" x="488.5006" y="216.9063"/><text fill="#000000" font-family="sans-serif" font-size="12" lengthAdjust="spacing" textLength="216.5449" x="498.5006" y="238.0449">Trigger batch processing (schedule)</text><rect fill="#F1F1F1" height="33.9688" rx="12.5" ry="12.5" style="stroke:#181818;stroke-width:0.5;" width="167.2285" x="523.1588" y="270.875"/><text fill="#000000" font-family="sans-serif" font-size="12" lengthAdjust="spacing" textLength="147.2285" x="533.1588" y="292.0137">Ambil video dari storage</text><rect fill="#F1F1F1" height="33.9688" rx="12.5" ry="12.5" style="stroke:#181818;stroke-width:0.5;" width="234.5938" x="489.4762" y="324.8438"/><text fill="#000000" font-family="sans-serif" font-size="12" lengthAdjust="spacing" textLength="214.5938" x="499.4762" y="345.9824">Deteksi manusia (people detection)</text><polygon fill="#F1F1F1" points="551.4588,378.8125,662.0872,378.8125,674.0872,390.8125,662.0872,402.8125,551.4588,402.8125,539.4588,390.8125,551.4588,378.8125" style="stroke:#181818;stroke-width:0.5;"/><text fill="#000000" font-family="sans-serif" font-size="11" lengthAdjust="spacing" textLength="110.6284" x="551.4588" y="394.6206">Manusia terdeteksi?</text><text fill="#000000" font-family="sans-serif" font-size="11" lengthAdjust="spacing" textLength="13.46" x="525.9989" y="388.2183">Ya</text><text fill="#000000" font-family="sans-serif" font-size="11" lengthAdjust="spacing" textLength="29.8687" x="674.0872" y="388.2183">Tidak</text><rect fill="#F1F1F1" height="33.9688" rx="12.5" ry="12.5" style="stroke:#181818;stroke-width:0.5;" width="189.5" x="340.5661" y="412.8125"/><text fill="#000000" font-family="sans-serif" font-size="12" lengthAdjust="spacing" textLength="169.5" x="350.5661" y="433.9512">Assign ID (tracking individu)</text><rect fill="#F1F1F1" height="33.9688" rx="12.5" ry="12.5" style="stroke:#181818;stroke-width:0.5;" width="149.8027" x="360.4147" y="466.7813"/><text fill="#000000" font-family="sans-serif" font-size="12" lengthAdjust="spacing" textLength="129.8027" x="370.4147" y="487.9199">Hitung sebagai traffic</text><rect fill="#F1F1F1" height="33.9688" rx="12.5" ry="12.5" style="stroke:#181818;stroke-width:0.5;" width="104.5215" x="383.0554" y="520.75"/><text fill="#000000" font-family="sans-serif" font-size="12" lengthAdjust="spacing" textLength="84.5215" x="393.0554" y="541.8887">Deteksi wajah</text><polygon fill="#F1F1F1" points="385.6603,574.7188,484.9719,574.7188,496.9719,586.7188,484.9719,598.7188,385.6603,598.7188,373.6603,586.7188,385.6603,574.7188" style="stroke:#181818;stroke-width:0.5;"/><text fill="#000000" font-family="sans-serif" font-size="11" lengthAdjust="spacing" textLength="99.3115" x="385.6603" y="590.5269">Wajah terdeteksi?</text><text fill="#000000" font-family="sans-serif" font-size="11" lengthAdjust="spacing" textLength="13.46" x="360.2004" y="584.1245">Ya</text><text fill="#000000" font-family="sans-serif" font-size="11" lengthAdjust="spacing" textLength="29.8687" x="496.9719" y="584.1245">Tidak</text><rect fill="#F1F1F1" height="33.9688" rx="12.5" ry="12.5" style="stroke:#181818;stroke-width:0.5;" width="244.25" x="168.7714" y="608.7188"/><text fill="#000000" font-family="sans-serif" font-size="12" lengthAdjust="spacing" textLength="224.25" x="178.7714" y="629.8574">Analisis arah wajah (gaze/head pose)</text><polygon fill="#F1F1F1" points="240.1288,662.6875,341.6639,662.6875,353.6639,674.6875,341.6639,686.6875,240.1288,686.6875,228.1288,674.6875,240.1288,662.6875" style="stroke:#181818;stroke-width:0.5;"/><text fill="#000000" font-family="sans-serif" font-size="11" lengthAdjust="spacing" textLength="101.5352" x="240.1288" y="678.4956">Menghadap layar?</text><text fill="#000000" font-family="sans-serif" font-size="11" lengthAdjust="spacing" textLength="13.46" x="214.6688" y="672.0933">Ya</text><text fill="#000000" font-family="sans-serif" font-size="11" lengthAdjust="spacing" textLength="29.8687" x="353.6639" y="672.0933">Tidak</text><rect fill="#F1F1F1" height="33.9688" rx="12.5" ry="12.5" style="stroke:#181818;stroke-width:0.5;" width="150.0195" x="109.4309" y="696.6875"/><text fill="#000000" font-family="sans-serif" font-size="12" lengthAdjust="spacing" textLength="130.0195" x="119.4309" y="717.8262">Hitung durasi melihat</text><polygon fill="#F1F1F1" points="125.0391,750.6563,243.8423,750.6563,255.8423,762.6563,243.8423,774.6563,125.0391,774.6563,113.0391,762.6563,125.0391,750.6563" style="stroke:#181818;stroke-width:0.5;"/><text fill="#000000" font-family="sans-serif" font-size="11" lengthAdjust="spacing" textLength="118.8032" x="125.0391" y="766.4644">Durasi &gt;= threshold?</text><text fill="#000000" font-family="sans-serif" font-size="11" lengthAdjust="spacing" textLength="13.46" x="99.5791" y="760.062">Ya</text><text fill="#000000" font-family="sans-serif" font-size="11" lengthAdjust="spacing" textLength="29.8687" x="255.8423" y="760.062">Tidak</text><rect fill="#F1F1F1" height="33.9688" rx="12.5" ry="12.5" style="stroke:#181818;stroke-width:0.5;" width="174.0781" x="16" y="784.6563"/><text fill="#000000" font-family="sans-serif" font-size="12" lengthAdjust="spacing" textLength="154.0781" x="26" y="805.7949">Klasifikasi sebagai viewer</text><rect fill="#F1F1F1" height="33.9688" rx="12.5" ry="12.5" style="stroke:#181818;stroke-width:0.5;" width="101.5098" x="215.0874" y="784.6563"/><text fill="#000000" font-family="sans-serif" font-size="12" lengthAdjust="spacing" textLength="81.5098" x="225.0874" y="805.7949">Bukan viewer</text><polygon fill="#F1F1F1" points="184.4407,824.625,196.4407,836.625,184.4407,848.625,172.4407,836.625,184.4407,824.625" style="stroke:#181818;stroke-width:0.5;"/><rect fill="#F1F1F1" height="33.9688" rx="12.5" ry="12.5" style="stroke:#181818;stroke-width:0.5;" width="101.5098" x="346.5972" y="696.6875"/><text fill="#000000" font-family="sans-serif" font-size="12" lengthAdjust="spacing" textLength="81.5098" x="356.5972" y="717.8262">Bukan viewer</text><polygon fill="#F1F1F1" points="290.8964,854.625,302.8964,866.625,290.8964,878.625,278.8964,866.625,290.8964,854.625" style="stroke:#181818;stroke-width:0.5;"/><rect fill="#F1F1F1" height="33.9688" rx="12.5" ry="12.5" style="stroke:#181818;stroke-width:0.5;" width="203.2578" x="478.1069" y="608.7188"/><text fill="#000000" font-family="sans-serif" font-size="12" lengthAdjust="spacing" textLength="183.2578" x="488.1069" y="629.8574">Skip (tidak valid untuk viewer)</text><polygon fill="#F1F1F1" points="435.3161,884.625,447.3161,896.625,435.3161,908.625,423.3161,896.625,435.3161,884.625" style="stroke:#181818;stroke-width:0.5;"/><rect fill="#F1F1F1" height="33.9688" rx="12.5" ry="12.5" style="stroke:#181818;stroke-width:0.5;" width="133.7305" x="711.3647" y="412.8125"/><text fill="#000000" font-family="sans-serif" font-size="12" lengthAdjust="spacing" textLength="113.7305" x="721.3647" y="433.9512">Tidak ada manusia</text><polygon fill="#F1F1F1" points="606.773,914.625,618.773,926.625,606.773,938.625,594.773,926.625,606.773,914.625" style="stroke:#181818;stroke-width:0.5;"/><rect fill="#F1F1F1" height="33.9688" rx="12.5" ry="12.5" style="stroke:#181818;stroke-width:0.5;" width="269.709" x="471.9185" y="958.625"/><text fill="#000000" font-family="sans-serif" font-size="12" lengthAdjust="spacing" textLength="249.709" x="481.9185" y="979.7637">Agregasi data (traffic, viewer, dwell time)</text><rect fill="#F1F1F1" height="33.9688" rx="12.5" ry="12.5" style="stroke:#181818;stroke-width:0.5;" width="174.5059" x="519.5201" y="1012.5938"/><text fill="#000000" font-family="sans-serif" font-size="12" lengthAdjust="spacing" textLength="154.5059" x="529.5201" y="1033.7324">Simpan hasil ke database</text><rect fill="#F1F1F1" height="33.9688" rx="12.5" ry="12.5" style="stroke:#181818;stroke-width:0.5;" width="199.0625" x="507.2418" y="1066.5625"/><text fill="#000000" font-family="sans-serif" font-size="12" lengthAdjust="spacing" textLength="179.0625" x="517.2418" y="1087.7012">Tampilkan data ke dashboard</text><ellipse cx="606.773" cy="1131.5313" fill="none" rx="11" ry="11" style="stroke:#222222;stroke-width:1;"/><ellipse cx="606.773" cy="1131.5313" fill="#222222" rx="6" ry="6" style="stroke:#222222;stroke-width:1;"/><line style="stroke:#181818;stroke-width:1;" x1="606.773" x2="606.773" y1="35" y2="55"/><polygon fill="#181818" points="602.773,45,606.773,55,610.773,45,606.773,49" style="stroke:#181818;stroke-width:1;"/><line style="stroke:#181818;stroke-width:1;" x1="606.773" x2="606.773" y1="88.9688" y2="108.9688"/><polygon fill="#181818" points="602.773,98.9688,606.773,108.9688,610.773,98.9688,606.773,102.9688" style="stroke:#181818;stroke-width:1;"/><line style="stroke:#181818;stroke-width:1;" x1="606.773" x2="606.773" y1="142.9375" y2="162.9375"/><polygon fill="#181818" points="602.773,152.9375,606.773,162.9375,610.773,152.9375,606.773,156.9375" style="stroke:#181818;stroke-width:1;"/><line style="stroke:#181818;stroke-width:1;" x1="606.773" x2="606.773" y1="196.9063" y2="216.9063"/><polygon fill="#181818" points="602.773,206.9063,606.773,216.9063,610.773,206.9063,606.773,210.9063" style="stroke:#181818;stroke-width:1;"/><line style="stroke:#181818;stroke-width:1;" x1="606.773" x2="606.773" y1="250.875" y2="270.875"/><polygon fill="#181818" points="602.773,260.875,606.773,270.875,610.773,260.875,606.773,264.875" style="stroke:#181818;stroke-width:1;"/><line style="stroke:#181818;stroke-width:1;" x1="606.773" x2="606.773" y1="304.8438" y2="324.8438"/><polygon fill="#181818" points="602.773,314.8438,606.773,324.8438,610.773,314.8438,606.773,318.8438" style="stroke:#181818;stroke-width:1;"/><line style="stroke:#181818;stroke-width:1;" x1="435.3161" x2="435.3161" y1="446.7813" y2="466.7813"/><polygon fill="#181818" points="431.3161,456.7813,435.3161,466.7813,439.3161,456.7813,435.3161,460.7813" style="stroke:#181818;stroke-width:1;"/><line style="stroke:#181818;stroke-width:1;" x1="435.3161" x2="435.3161" y1="500.75" y2="520.75"/><polygon fill="#181818" points="431.3161,510.75,435.3161,520.75,439.3161,510.75,435.3161,514.75" style="stroke:#181818;stroke-width:1;"/><line style="stroke:#181818;stroke-width:1;" x1="113.0391" x2="103.0391" y1="762.6563" y2="762.6563"/><line style="stroke:#181818;stroke-width:1;" x1="103.0391" x2="103.0391" y1="762.6563" y2="784.6563"/><polygon fill="#181818" points="99.0391,774.6563,103.0391,784.6563,107.0391,774.6563,103.0391,778.6563" style="stroke:#181818;stroke-width:1;"/><line style="stroke:#181818;stroke-width:1;" x1="255.8423" x2="265.8423" y1="762.6563" y2="762.6563"/><line style="stroke:#181818;stroke-width:1;" x1="265.8423" x2="265.8423" y1="762.6563" y2="784.6563"/><polygon fill="#181818" points="261.8423,774.6563,265.8423,784.6563,269.8423,774.6563,265.8423,778.6563" style="stroke:#181818;stroke-width:1;"/><line style="stroke:#181818;stroke-width:1;" x1="103.0391" x2="103.0391" y1="818.625" y2="836.625"/><line style="stroke:#181818;stroke-width:1;" x1="103.0391" x2="172.4407" y1="836.625" y2="836.625"/><polygon fill="#181818" points="162.4407,832.625,172.4407,836.625,162.4407,840.625,166.4407,836.625" style="stroke:#181818;stroke-width:1;"/><line style="stroke:#181818;stroke-width:1;" x1="265.8423" x2="265.8423" y1="818.625" y2="836.625"/><line style="stroke:#181818;stroke-width:1;" x1="265.8423" x2="196.4407" y1="836.625" y2="836.625"/><polygon fill="#181818" points="206.4407,832.625,196.4407,836.625,206.4407,840.625,202.4407,836.625" style="stroke:#181818;stroke-width:1;"/><line style="stroke:#181818;stroke-width:1;" x1="184.4407" x2="184.4407" y1="730.6563" y2="750.6563"/><polygon fill="#181818" points="180.4407,740.6563,184.4407,750.6563,188.4407,740.6563,184.4407,744.6563" style="stroke:#181818;stroke-width:1;"/><line style="stroke:#181818;stroke-width:1;" x1="228.1288" x2="184.4407" y1="674.6875" y2="674.6875"/><line style="stroke:#181818;stroke-width:1;" x1="184.4407" x2="184.4407" y1="674.6875" y2="696.6875"/><polygon fill="#181818" points="180.4407,686.6875,184.4407,696.6875,188.4407,686.6875,184.4407,690.6875" style="stroke:#181818;stroke-width:1;"/><line style="stroke:#181818;stroke-width:1;" x1="353.6639" x2="397.3521" y1="674.6875" y2="674.6875"/><line style="stroke:#181818;stroke-width:1;" x1="397.3521" x2="397.3521" y1="674.6875" y2="696.6875"/><polygon fill="#181818" points="393.3521,686.6875,397.3521,696.6875,401.3521,686.6875,397.3521,690.6875" style="stroke:#181818;stroke-width:1;"/><line style="stroke:#181818;stroke-width:1;" x1="184.4407" x2="184.4407" y1="848.625" y2="866.625"/><line style="stroke:#181818;stroke-width:1;" x1="184.4407" x2="278.8964" y1="866.625" y2="866.625"/><polygon fill="#181818" points="268.8964,862.625,278.8964,866.625,268.8964,870.625,272.8964,866.625" style="stroke:#181818;stroke-width:1;"/><line style="stroke:#181818;stroke-width:1;" x1="397.3521" x2="397.3521" y1="730.6563" y2="866.625"/><line style="stroke:#181818;stroke-width:1;" x1="397.3521" x2="302.8964" y1="866.625" y2="866.625"/><polygon fill="#181818" points="312.8964,862.625,302.8964,866.625,312.8964,870.625,308.8964,866.625" style="stroke:#181818;stroke-width:1;"/><line style="stroke:#181818;stroke-width:1;" x1="290.8964" x2="290.8964" y1="642.6875" y2="662.6875"/><polygon fill="#181818" points="286.8964,652.6875,290.8964,662.6875,294.8964,652.6875,290.8964,656.6875" style="stroke:#181818;stroke-width:1;"/><line style="stroke:#181818;stroke-width:1;" x1="373.6603" x2="290.8964" y1="586.7188" y2="586.7188"/><line style="stroke:#181818;stroke-width:1;" x1="290.8964" x2="290.8964" y1="586.7188" y2="608.7188"/><polygon fill="#181818" points="286.8964,598.7188,290.8964,608.7188,294.8964,598.7188,290.8964,602.7188" style="stroke:#181818;stroke-width:1;"/><line style="stroke:#181818;stroke-width:1;" x1="496.9719" x2="579.7358" y1="586.7188" y2="586.7188"/><line style="stroke:#181818;stroke-width:1;" x1="579.7358" x2="579.7358" y1="586.7188" y2="608.7188"/><polygon fill="#181818" points="575.7358,598.7188,579.7358,608.7188,583.7358,598.7188,579.7358,602.7188" style="stroke:#181818;stroke-width:1;"/><line style="stroke:#181818;stroke-width:1;" x1="290.8964" x2="290.8964" y1="878.625" y2="896.625"/><line style="stroke:#181818;stroke-width:1;" x1="290.8964" x2="423.3161" y1="896.625" y2="896.625"/><polygon fill="#181818" points="413.3161,892.625,423.3161,896.625,413.3161,900.625,417.3161,896.625" style="stroke:#181818;stroke-width:1;"/><line style="stroke:#181818;stroke-width:1;" x1="579.7358" x2="579.7358" y1="642.6875" y2="896.625"/><line style="stroke:#181818;stroke-width:1;" x1="579.7358" x2="447.3161" y1="896.625" y2="896.625"/><polygon fill="#181818" points="457.3161,892.625,447.3161,896.625,457.3161,900.625,453.3161,896.625" style="stroke:#181818;stroke-width:1;"/><line style="stroke:#181818;stroke-width:1;" x1="435.3161" x2="435.3161" y1="554.7188" y2="574.7188"/><polygon fill="#181818" points="431.3161,564.7188,435.3161,574.7188,439.3161,564.7188,435.3161,568.7188" style="stroke:#181818;stroke-width:1;"/><line style="stroke:#181818;stroke-width:1;" x1="539.4588" x2="435.3161" y1="390.8125" y2="390.8125"/><line style="stroke:#181818;stroke-width:1;" x1="435.3161" x2="435.3161" y1="390.8125" y2="412.8125"/><polygon fill="#181818" points="431.3161,402.8125,435.3161,412.8125,439.3161,402.8125,435.3161,406.8125" style="stroke:#181818;stroke-width:1;"/><line style="stroke:#181818;stroke-width:1;" x1="674.0872" x2="778.23" y1="390.8125" y2="390.8125"/><line style="stroke:#181818;stroke-width:1;" x1="778.23" x2="778.23" y1="390.8125" y2="412.8125"/><polygon fill="#181818" points="774.23,402.8125,778.23,412.8125,782.23,402.8125,778.23,406.8125" style="stroke:#181818;stroke-width:1;"/><line style="stroke:#181818;stroke-width:1;" x1="435.3161" x2="435.3161" y1="908.625" y2="926.625"/><line style="stroke:#181818;stroke-width:1;" x1="435.3161" x2="594.773" y1="926.625" y2="926.625"/><polygon fill="#181818" points="584.773,922.625,594.773,926.625,584.773,930.625,588.773,926.625" style="stroke:#181818;stroke-width:1;"/><line style="stroke:#181818;stroke-width:1;" x1="778.23" x2="778.23" y1="446.7813" y2="926.625"/><line style="stroke:#181818;stroke-width:1;" x1="778.23" x2="618.773" y1="926.625" y2="926.625"/><polygon fill="#181818" points="628.773,922.625,618.773,926.625,628.773,930.625,624.773,926.625" style="stroke:#181818;stroke-width:1;"/><line style="stroke:#181818;stroke-width:1;" x1="606.773" x2="606.773" y1="358.8125" y2="378.8125"/><polygon fill="#181818" points="602.773,368.8125,606.773,378.8125,610.773,368.8125,606.773,372.8125" style="stroke:#181818;stroke-width:1;"/><line style="stroke:#181818;stroke-width:1;" x1="606.773" x2="606.773" y1="938.625" y2="958.625"/><polygon fill="#181818" points="602.773,948.625,606.773,958.625,610.773,948.625,606.773,952.625" style="stroke:#181818;stroke-width:1;"/><line style="stroke:#181818;stroke-width:1;" x1="606.773" x2="606.773" y1="992.5938" y2="1012.5938"/><polygon fill="#181818" points="602.773,1002.5938,606.773,1012.5938,610.773,1002.5938,606.773,1006.5938" style="stroke:#181818;stroke-width:1;"/><line style="stroke:#181818;stroke-width:1;" x1="606.773" x2="606.773" y1="1046.5625" y2="1066.5625"/><polygon fill="#181818" points="602.773,1056.5625,606.773,1066.5625,610.773,1056.5625,606.773,1060.5625" style="stroke:#181818;stroke-width:1;"/><line style="stroke:#181818;stroke-width:1;" x1="606.773" x2="606.773" y1="1100.5313" y2="1120.5313"/><polygon fill="#181818" points="602.773,1110.5313,606.773,1120.5313,610.773,1110.5313,606.773,1114.5313" style="stroke:#181818;stroke-width:1;"/><?plantuml-src TLAzRjmm3Dxz51nzG83kFhJ55JSqA0eKJO2W8stH4YDPCYJv3kdKlM_P9oab-zeWkMms-VsGr9SonjmqtJTCw3LOd2WYA8OJAmev1hzlkkyaTK2R-SGP4s0aX4G32jG6dzalUz6uusd6Fxz--vKCbY3b455JwTv7rfeYz9W70tCC0wN4ujccmP1Q7EqAx33rx3O1XP6VInmfaqqC4_ebCK8xKvWTWPBwa3duei0Zj5ytGAQeLix77MH37jeVk6i0keDuQm-tHsXpnC6MGTWhML0jeYA8pvmNAIRgKIE3eCQH1p6GtcMGCpwYgQNY-b3-tlOihXuT9ouN56HbGwln9xqpX0hcaEeH2hQkGLuRL3Y3moUCh_J-JwcMYEKmvDXWtYHMaUFQ-l1Uo96I2KvT4HAfBqvm8zk2lcnzOZfJt6yWSecWlMU5zXdlqsBHlqJAASTrYYkaAvH_X5VmxixoBAzKAd2I-obOV5xiHg-FjR5VSBlw1NB0IsBspORi3ZgIBfigp5WpK5xtPXEz0NKcvo3pjAQoHjk34OOhkIwi7jCQR9ncTcMXgbMxoVG1evAsn7V-2m00?></g></svg>