<svg xmlns="http://www.w3.org/2000/svg" xmlns:xlink="http://www.w3.org/1999/xlink" contentStyleType="text/css" data-diagram-type="ACTIVITY" height="2543.34" preserveAspectRatio="none" style="width:293px;height:690px;background:#FFFFFF;" version="1.1" viewBox="0 0 293 690" width="1080" zoomAndPan="magnify"><?plantuml 1.2026.3beta5?><defs/><g><ellipse cx="144.7109" cy="25" fill="#222222" rx="10" ry="10" style="stroke:#222222;stroke-width:1;"/><rect fill="#F1F1F1" height="33.9688" rx="12.5" ry="12.5" style="stroke:#181818;stroke-width:0.5;" width="207.1895" x="41.1162" y="55"/><text fill="#000000" font-family="sans-serif" font-size="12" lengthAdjust="spacing" textLength="187.1895" x="51.1162" y="76.1387">Load video (OpenCV / FFmpeg)</text><rect fill="#F1F1F1" height="33.9688" rx="12.5" ry="12.5" style="stroke:#181818;stroke-width:0.5;" width="102.377" x="93.5225" y="108.9688"/><text fill="#000000" font-family="sans-serif" font-size="12" lengthAdjust="spacing" textLength="82.377" x="103.5225" y="130.1074">Extract frame</text><rect fill="#F1F1F1" height="33.9688" rx="12.5" ry="12.5" style="stroke:#181818;stroke-width:0.5;" width="168.4883" x="60.4668" y="162.9375"/><text fill="#000000" font-family="sans-serif" font-size="12" lengthAdjust="spacing" textLength="148.4883" x="70.4668" y="184.0762">People Detection (YOLO)</text><rect fill="#F1F1F1" height="33.9688" rx="12.5" ry="12.5" style="stroke:#181818;stroke-width:0.5;" width="221.5098" x="33.9561" y="216.9063"/><text fill="#000000" font-family="sans-serif" font-size="12" lengthAdjust="spacing" textLength="201.5098" x="43.9561" y="238.0449">Tracking (DeepSORT / ByteTrack)</text><rect fill="#F1F1F1" height="33.9688" rx="12.5" ry="12.5" style="stroke:#181818;stroke-width:0.5;" width="246.166" x="21.6279" y="270.875"/><text fill="#000000" font-family="sans-serif" font-size="12" lengthAdjust="spacing" textLength="226.166" x="31.6279" y="292.0137">Face Detection (MTCNN / RetinaFace)</text><rect fill="#F1F1F1" height="33.9688" rx="12.5" ry="12.5" style="stroke:#181818;stroke-width:0.5;" width="225.9102" x="31.7559" y="324.8438"/><text fill="#000000" font-family="sans-serif" font-size="12" lengthAdjust="spacing" textLength="205.9102" x="41.7559" y="345.9824">Head Pose Estimation (MediaPipe)</text><rect fill="#F1F1F1" height="33.9688" rx="12.5" ry="12.5" style="stroke:#181818;stroke-width:0.5;" width="180.8867" x="54.2676" y="378.8125"/><text fill="#000000" font-family="sans-serif" font-size="12" lengthAdjust="spacing" textLength="160.8867" x="64.2676" y="399.9512">Hitung dwell time (Python)</text><rect fill="#F1F1F1" height="33.9688" rx="12.5" ry="12.5" style="stroke:#181818;stroke-width:0.5;" width="178.127" x="55.6475" y="432.7813"/><text fill="#000000" font-family="sans-serif" font-size="12" lengthAdjust="spacing" textLength="158.127" x="65.6475" y="453.9199">Klasifikasi viewer (Python)</text><rect fill="#F1F1F1" height="33.9688" rx="12.5" ry="12.5" style="stroke:#181818;stroke-width:0.5;" width="160.1387" x="64.6416" y="486.75"/><text fill="#000000" font-family="sans-serif" font-size="12" lengthAdjust="spacing" textLength="140.1387" x="74.6416" y="507.8887">Agregasi data (Pandas)</text><rect fill="#F1F1F1" height="33.9688" rx="12.5" ry="12.5" style="stroke:#181818;stroke-width:0.5;" width="187.0449" x="51.1885" y="540.7188"/><text fill="#000000" font-family="sans-serif" font-size="12" lengthAdjust="spacing" textLength="167.0449" x="61.1885" y="561.8574">Simpan ke DB (PostgreSQL)</text><rect fill="#F1F1F1" height="33.9688" rx="12.5" ry="12.5" style="stroke:#181818;stroke-width:0.5;" width="257.4219" x="16" y="594.6875"/><text fill="#000000" font-family="sans-serif" font-size="12" lengthAdjust="spacing" textLength="237.4219" x="26" y="615.8262">Tampilkan dashboard (React / Grafana)</text><ellipse cx="144.7109" cy="659.6563" fill="none" rx="11" ry="11" style="stroke:#222222;stroke-width:1;"/><ellipse cx="144.7109" cy="659.6563" fill="#222222" rx="6" ry="6" style="stroke:#222222;stroke-width:1;"/><line style="stroke:#181818;stroke-width:1;" x1="144.7109" x2="144.7109" y1="35" y2="55"/><polygon fill="#181818" points="140.7109,45,144.7109,55,148.7109,45,144.7109,49" style="stroke:#181818;stroke-width:1;"/><line style="stroke:#181818;stroke-width:1;" x1="144.7109" x2="144.7109" y1="88.9688" y2="108.9688"/><polygon fill="#181818" points="140.7109,98.9688,144.7109,108.9688,148.7109,98.9688,144.7109,102.9688" style="stroke:#181818;stroke-width:1;"/><line style="stroke:#181818;stroke-width:1;" x1="144.7109" x2="144.7109" y1="142.9375" y2="162.9375"/><polygon fill="#181818" points="140.7109,152.9375,144.7109,162.9375,148.7109,152.9375,144.7109,156.9375" style="stroke:#181818;stroke-width:1;"/><line style="stroke:#181818;stroke-width:1;" x1="144.7109" x2="144.7109" y1="196.9063" y2="216.9063"/><polygon fill="#181818" points="140.7109,206.9063,144.7109,216.9063,148.7109,206.9063,144.7109,210.9063" style="stroke:#181818;stroke-width:1;"/><line style="stroke:#181818;stroke-width:1;" x1="144.7109" x2="144.7109" y1="250.875" y2="270.875"/><polygon fill="#181818" points="140.7109,260.875,144.7109,270.875,148.7109,260.875,144.7109,264.875" style="stroke:#181818;stroke-width:1;"/><line style="stroke:#181818;stroke-width:1;" x1="144.7109" x2="144.7109" y1="304.8438" y2="324.8438"/><polygon fill="#181818" points="140.7109,314.8438,144.7109,324.8438,148.7109,314.8438,144.7109,318.8438" style="stroke:#181818;stroke-width:1;"/><line style="stroke:#181818;stroke-width:1;" x1="144.7109" x2="144.7109" y1="358.8125" y2="378.8125"/><polygon fill="#181818" points="140.7109,368.8125,144.7109,378.8125,148.7109,368.8125,144.7109,372.8125" style="stroke:#181818;stroke-width:1;"/><line style="stroke:#181818;stroke-width:1;" x1="144.7109" x2="144.7109" y1="412.7813" y2="432.7813"/><polygon fill="#181818" points="140.7109,422.7813,144.7109,432.7813,148.7109,422.7813,144.7109,426.7813" style="stroke:#181818;stroke-width:1;"/><line style="stroke:#181818;stroke-width:1;" x1="144.7109" x2="144.7109" y1="466.75" y2="486.75"/><polygon fill="#181818" points="140.7109,476.75,144.7109,486.75,148.7109,476.75,144.7109,480.75" style="stroke:#181818;stroke-width:1;"/><line style="stroke:#181818;stroke-width:1;" x1="144.7109" x2="144.7109" y1="520.7188" y2="540.7188"/><polygon fill="#181818" points="140.7109,530.7188,144.7109,540.7188,148.7109,530.7188,144.7109,534.7188" style="stroke:#181818;stroke-width:1;"/><line style="stroke:#181818;stroke-width:1;" x1="144.7109" x2="144.7109" y1="574.6875" y2="594.6875"/><polygon fill="#181818" points="140.7109,584.6875,144.7109,594.6875,148.7109,584.6875,144.7109,588.6875" style="stroke:#181818;stroke-width:1;"/><line style="stroke:#181818;stroke-width:1;" x1="144.7109" x2="144.7109" y1="628.6563" y2="648.6563"/><polygon fill="#181818" points="140.7109,638.6563,144.7109,648.6563,148.7109,638.6563,144.7109,642.6563" style="stroke:#181818;stroke-width:1;"/><?plantuml-src LT0zRuCm483XFR_YHZ9bRwVcWrOA3GHGfOvNV90JO5lsjMd-VGytInOFVXz_Hi4WgzLJuT303njoa9MUxEu3Df3diwTX_Qpzy2i1Eu4-u4pBH4NEJmHx4kg4dONiiopAP5kL8zi1iZsHRygwrRssDw4K4icnUrZxtkvE9rKr2LjSQc9lfBUgN2GuHE4PxvWCOyN-RbY-zInpfMa2HGHPTPEBiwaU9upSywYZFe-k51xoon1eM9f1GIre3SPK6fuzMXZrcbiDBehIvbpyln1dpzEeNVdbos4maDMqVD06NWFsQ761KPp_0m00?></g></svg>