<svg xmlns="http://www.w3.org/2000/svg" xmlns:xlink="http://www.w3.org/1999/xlink" contentStyleType="text/css" data-diagram-type="CLASS" height="2224.32" preserveAspectRatio="none" style="width:403px;height:830px;background:#FFFFFF;" version="1.1" viewBox="0 0 403 830" width="1080" zoomAndPan="magnify"><?plantuml 1.2026.3beta5?><defs/><g><!--class Camera--><g class="entity" data-qualified-name="Camera" data-source-line="3" id="ent0002"><rect fill="#F1F1F1" height="80.5938" rx="2.5" ry="2.5" style="stroke:#181818;stroke-width:0.5;" width="139.0117" x="7" y="7"/><ellipse cx="45.4321" cy="23" fill="#ADD1B2" rx="11" ry="11" style="stroke:#181818;stroke-width:1;"/><path d="M48.4008,28.6406 Q47.8227,28.9375 47.1821,29.0781 Q46.5415,29.2344 45.8383,29.2344 Q43.3383,29.2344 42.0102,27.5938 Q40.6977,25.9375 40.6977,22.8125 Q40.6977,19.6875 42.0102,18.0313 Q43.3383,16.375 45.8383,16.375 Q46.5415,16.375 47.1821,16.5313 Q47.8383,16.6875 48.4008,16.9844 L48.4008,19.7031 Q47.7758,19.125 47.1821,18.8594 Q46.5883,18.5781 45.9633,18.5781 Q44.6196,18.5781 43.9321,19.6563 Q43.2446,20.7188 43.2446,22.8125 Q43.2446,24.9063 43.9321,25.9844 Q44.6196,27.0469 45.9633,27.0469 Q46.5883,27.0469 47.1821,26.7813 Q47.7758,26.5 48.4008,25.9219 L48.4008,28.6406 Z " fill="#000000"/><text fill="#000000" font-family="sans-serif" font-size="14" lengthAdjust="spacing" textLength="54.9404" x="64.6392" y="27.8467">Camera</text><line style="stroke:#181818;stroke-width:0.5;" x1="8" x2="145.0117" y1="39" y2="39"/><text fill="#000000" font-family="sans-serif" font-size="14" lengthAdjust="spacing" textLength="127.0117" x="13" y="55.9951">Kamera Videotron</text><line style="stroke:#181818;stroke-width:0.5;" x1="8" x2="145.0117" y1="63.2969" y2="63.2969"/><text fill="#000000" font-family="sans-serif" font-size="14" lengthAdjust="spacing" textLength="110.8789" x="13" y="80.292">(Capture Video)</text></g><!--class Storage--><g class="entity" data-qualified-name="Storage" data-source-line="8" id="ent0003"><rect fill="#F1F1F1" height="80.5938" rx="2.5" ry="2.5" style="stroke:#181818;stroke-width:0.5;" width="113.0625" x="115.97" y="164.59"/><ellipse cx="142.7988" cy="180.59" fill="#ADD1B2" rx="11" ry="11" style="stroke:#181818;stroke-width:1;"/><path d="M145.7675,186.2306 Q145.1894,186.5275 144.5488,186.6681 Q143.9081,186.8244 143.205,186.8244 Q140.705,186.8244 139.3769,185.1838 Q138.0644,183.5275 138.0644,180.4025 Q138.0644,177.2775 139.3769,175.6213 Q140.705,173.965 143.205,173.965 Q143.9081,173.965 144.5488,174.1213 Q145.205,174.2775 145.7675,174.5744 L145.7675,177.2931 Q145.1425,176.715 144.5488,176.4494 Q143.955,176.1681 143.33,176.1681 Q141.9863,176.1681 141.2988,177.2463 Q140.6113,178.3088 140.6113,180.4025 Q140.6113,182.4963 141.2988,183.5744 Q141.9863,184.6369 143.33,184.6369 Q143.955,184.6369 144.5488,184.3713 Q145.1425,184.09 145.7675,183.5119 L145.7675,186.2306 Z " fill="#000000"/><text fill="#000000" font-family="sans-serif" font-size="14" lengthAdjust="spacing" textLength="54.7764" x="159.4274" y="185.4367">Storage</text><line style="stroke:#181818;stroke-width:0.5;" x1="116.97" x2="228.0325" y1="196.59" y2="196.59"/><text fill="#000000" font-family="sans-serif" font-size="14" lengthAdjust="spacing" textLength="98.7588" x="121.97" y="213.5851">Video Storage</text><line style="stroke:#181818;stroke-width:0.5;" x1="116.97" x2="228.0325" y1="220.8869" y2="220.8869"/><text fill="#000000" font-family="sans-serif" font-size="14" lengthAdjust="spacing" textLength="101.0625" x="121.97" y="237.882">(Local / Cloud)</text></g><!--class Scheduler--><g class="entity" data-qualified-name="Scheduler" data-source-line="13" id="ent0004"><rect fill="#F1F1F1" height="80.5938" rx="2.5" ry="2.5" style="stroke:#181818;stroke-width:0.5;" width="153.0254" x="191.99" y="7"/><ellipse cx="229.9114" cy="23" fill="#ADD1B2" rx="11" ry="11" style="stroke:#181818;stroke-width:1;"/><path d="M232.8802,28.6406 Q232.3021,28.9375 231.6614,29.0781 Q231.0208,29.2344 230.3177,29.2344 Q227.8177,29.2344 226.4896,27.5938 Q225.1771,25.9375 225.1771,22.8125 Q225.1771,19.6875 226.4896,18.0313 Q227.8177,16.375 230.3177,16.375 Q231.0208,16.375 231.6614,16.5313 Q232.3177,16.6875 232.8802,16.9844 L232.8802,19.7031 Q232.2552,19.125 231.6614,18.8594 Q231.0677,18.5781 230.4427,18.5781 Q229.0989,18.5781 228.4114,19.6563 Q227.7239,20.7188 227.7239,22.8125 Q227.7239,24.9063 228.4114,25.9844 Q229.0989,27.0469 230.4427,27.0469 Q231.0677,27.0469 231.6614,26.7813 Q232.2552,26.5 232.8802,25.9219 L232.8802,28.6406 Z " fill="#000000"/><text fill="#000000" font-family="sans-serif" font-size="14" lengthAdjust="spacing" textLength="70.0889" x="249.0051" y="27.8467">Scheduler</text><line style="stroke:#181818;stroke-width:0.5;" x1="192.99" x2="344.0154" y1="39" y2="39"/><text fill="#000000" font-family="sans-serif" font-size="14" lengthAdjust="spacing" textLength="114.7822" x="197.99" y="55.9951">Batch Scheduler</text><line style="stroke:#181818;stroke-width:0.5;" x1="192.99" x2="344.0154" y1="63.2969" y2="63.2969"/><text fill="#000000" font-family="sans-serif" font-size="14" lengthAdjust="spacing" textLength="141.0254" x="197.99" y="80.292">(Trigger Processing)</text></g><!--class AI--><g class="entity" data-qualified-name="AI" data-source-line="18" id="ent0005"><rect fill="#F1F1F1" height="129.4844" rx="2.5" ry="2.5" style="stroke:#181818;stroke-width:0.5;" width="171.8994" x="86.56" y="322.19"/><ellipse cx="161.4067" cy="338.19" fill="#ADD1B2" rx="11" ry="11" style="stroke:#181818;stroke-width:1;"/><path d="M164.3754,343.8306 Q163.7973,344.1275 163.1567,344.2681 Q162.5161,344.4244 161.8129,344.4244 Q159.3129,344.4244 157.9848,342.7838 Q156.6723,341.1275 156.6723,338.0025 Q156.6723,334.8775 157.9848,333.2213 Q159.3129,331.565 161.8129,331.565 Q162.5161,331.565 163.1567,331.7213 Q163.8129,331.8775 164.3754,332.1744 L164.3754,334.8931 Q163.7504,334.315 163.1567,334.0494 Q162.5629,333.7681 161.9379,333.7681 Q160.5942,333.7681 159.9067,334.8463 Q159.2192,335.9088 159.2192,338.0025 Q159.2192,340.0963 159.9067,341.1744 Q160.5942,342.2369 161.9379,342.2369 Q162.5629,342.2369 163.1567,341.9713 Q163.7504,341.69 164.3754,341.1119 L164.3754,343.8306 Z " fill="#000000"/><text fill="#000000" font-family="sans-serif" font-size="14" lengthAdjust="spacing" textLength="13.7061" x="181.9067" y="343.0367">AI</text><line style="stroke:#181818;stroke-width:0.5;" x1="87.56" x2="257.4594" y1="354.19" y2="354.19"/><text fill="#000000" font-family="sans-serif" font-size="14" lengthAdjust="spacing" textLength="145.8994" x="106.56" y="371.1851">AI Processing Engine</text><g data-visibility-modifier="PRIVATE_FIELD"><rect fill="none" height="6" style="stroke:#C82930;stroke-width:1;" width="6" x="94.56" y="381.1353"/></g><text fill="#000000" font-family="sans-serif" font-size="14" lengthAdjust="spacing" textLength="119.4717" x="106.56" y="387.482">People Detection</text><g data-visibility-modifier="PRIVATE_FIELD"><rect fill="none" height="6" style="stroke:#C82930;stroke-width:1;" width="6" x="94.56" y="397.4322"/></g><text fill="#000000" font-family="sans-serif" font-size="14" lengthAdjust="spacing" textLength="105.4033" x="106.56" y="403.7789">Face Detection</text><g data-visibility-modifier="PRIVATE_FIELD"><rect fill="none" height="6" style="stroke:#C82930;stroke-width:1;" width="6" x="94.56" y="413.7291"/></g><text fill="#000000" font-family="sans-serif" font-size="14" lengthAdjust="spacing" textLength="114.3926" x="106.56" y="420.0757">Gaze Estimation</text><g data-visibility-modifier="PRIVATE_FIELD"><rect fill="none" height="6" style="stroke:#C82930;stroke-width:1;" width="6" x="94.56" y="430.0259"/></g><text fill="#000000" font-family="sans-serif" font-size="14" lengthAdjust="spacing" textLength="60.3408" x="106.56" y="436.3726">Tracking</text><line style="stroke:#181818;stroke-width:0.5;" x1="87.56" x2="257.4594" y1="443.6744" y2="443.6744"/></g><!--class DB--><g class="entity" data-qualified-name="DB" data-source-line="26" id="ent0006"><rect fill="#F1F1F1" height="113.1875" rx="2.5" ry="2.5" style="stroke:#181818;stroke-width:0.5;" width="160.8252" x="92.09" y="528.67"/><ellipse cx="158.0602" cy="544.67" fill="#ADD1B2" rx="11" ry="11" style="stroke:#181818;stroke-width:1;"/><path d="M161.029,550.3106 Q160.4508,550.6075 159.8102,550.7481 Q159.1696,550.9044 158.4665,550.9044 Q155.9665,550.9044 154.6383,549.2638 Q153.3258,547.6075 153.3258,544.4825 Q153.3258,541.3575 154.6383,539.7013 Q155.9665,538.045 158.4665,538.045 Q159.1696,538.045 159.8102,538.2013 Q160.4665,538.3575 161.029,538.6544 L161.029,541.3731 Q160.404,540.795 159.8102,540.5294 Q159.2165,540.2481 158.5915,540.2481 Q157.2477,540.2481 156.5602,541.3263 Q155.8727,542.3888 155.8727,544.4825 Q155.8727,546.5763 156.5602,547.6544 Q157.2477,548.7169 158.5915,548.7169 Q159.2165,548.7169 159.8102,548.4513 Q160.404,548.17 161.029,547.5919 L161.029,550.3106 Z " fill="#000000"/><text fill="#000000" font-family="sans-serif" font-size="14" lengthAdjust="spacing" textLength="20.3848" x="178.5602" y="549.5167">DB</text><line style="stroke:#181818;stroke-width:0.5;" x1="93.09" x2="251.9152" y1="560.67" y2="560.67"/><text fill="#000000" font-family="sans-serif" font-size="14" lengthAdjust="spacing" textLength="134.8252" x="112.09" y="577.6651">Analytics Database</text><g data-visibility-modifier="PRIVATE_FIELD"><rect fill="none" height="6" style="stroke:#C82930;stroke-width:1;" width="6" x="100.09" y="587.6153"/></g><text fill="#000000" font-family="sans-serif" font-size="14" lengthAdjust="spacing" textLength="82.209" x="112.09" y="593.962">Traffic Data</text><g data-visibility-modifier="PRIVATE_FIELD"><rect fill="none" height="6" style="stroke:#C82930;stroke-width:1;" width="6" x="100.09" y="603.9122"/></g><text fill="#000000" font-family="sans-serif" font-size="14" lengthAdjust="spacing" textLength="85.7773" x="112.09" y="610.2589">Viewer Data</text><g data-visibility-modifier="PRIVATE_FIELD"><rect fill="none" height="6" style="stroke:#C82930;stroke-width:1;" width="6" x="100.09" y="620.2091"/></g><text fill="#000000" font-family="sans-serif" font-size="14" lengthAdjust="spacing" textLength="77.7656" x="112.09" y="626.5557">Dwell Time</text><line style="stroke:#181818;stroke-width:0.5;" x1="93.09" x2="251.9152" y1="633.8575" y2="633.8575"/></g><!--class Dashboard--><g class="entity" data-qualified-name="Dashboard" data-source-line="33" id="ent0007"><rect fill="#F1F1F1" height="96.8906" rx="2.5" ry="2.5" style="stroke:#181818;stroke-width:0.5;" width="190.7051" x="77.15" y="718.86"/><ellipse cx="130.1524" cy="734.86" fill="#ADD1B2" rx="11" ry="11" style="stroke:#181818;stroke-width:1;"/><path d="M133.1212,740.5006 Q132.5431,740.7975 131.9024,740.9381 Q131.2618,741.0944 130.5587,741.0944 Q128.0587,741.0944 126.7306,739.4538 Q125.4181,737.7975 125.4181,734.6725 Q125.4181,731.5475 126.7306,729.8913 Q128.0587,728.235 130.5587,728.235 Q131.2618,728.235 131.9024,728.3913 Q132.5587,728.5475 133.1212,728.8444 L133.1212,731.5631 Q132.4962,730.985 131.9024,730.7194 Q131.3087,730.4381 130.6837,730.4381 Q129.3399,730.4381 128.6524,731.5163 Q127.9649,732.5788 127.9649,734.6725 Q127.9649,736.7663 128.6524,737.8444 Q129.3399,738.9069 130.6837,738.9069 Q131.3087,738.9069 131.9024,738.6413 Q132.4962,738.36 133.1212,737.7819 L133.1212,740.5006 Z " fill="#000000"/><text fill="#000000" font-family="sans-serif" font-size="14" lengthAdjust="spacing" textLength="76.2002" x="150.6524" y="739.7067">Dashboard</text><line style="stroke:#181818;stroke-width:0.5;" x1="78.15" x2="266.8551" y1="750.86" y2="750.86"/><text fill="#000000" font-family="sans-serif" font-size="14" lengthAdjust="spacing" textLength="164.7051" x="97.15" y="767.8551">Dashboard &amp; Reporting</text><g data-visibility-modifier="PRIVATE_FIELD"><rect fill="none" height="6" style="stroke:#C82930;stroke-width:1;" width="6" x="85.15" y="777.8053"/></g><text fill="#000000" font-family="sans-serif" font-size="14" lengthAdjust="spacing" textLength="42.1094" x="97.15" y="784.152">Grafik</text><g data-visibility-modifier="PRIVATE_FIELD"><rect fill="none" height="6" style="stroke:#C82930;stroke-width:1;" width="6" x="85.15" y="794.1022"/></g><text fill="#000000" font-family="sans-serif" font-size="14" lengthAdjust="spacing" textLength="47.4346" x="97.15" y="800.4489">Insight</text><line style="stroke:#181818;stroke-width:0.5;" x1="78.15" x2="266.8551" y1="807.7506" y2="807.7506"/></g><!--link Camera to Storage--><g class="link" data-entity-1="ent0002" data-entity-2="ent0003" data-link-type="dependency" data-source-line="39" id="lnk8"><path codeLine="39" d="M67.06,87.94 C65.42,103.28 66.17,120.5 73.51,134.59 C82.81,152.46 94.0108,163.4132 110.6908,174.1932" fill="none" id="Camera-to-Storage" style="stroke:#181818;stroke-width:1;"/><polygon fill="#181818" points="115.73,177.45,110.3424,169.2054,111.5307,174.736,106,175.9243,115.73,177.45" style="stroke:#181818;stroke-width:1;"/><text fill="#000000" font-family="sans-serif" font-size="13" lengthAdjust="spacing" textLength="150.7378" x="74.51" y="130.6569">Rekam &amp; simpan video</text></g><!--link Scheduler to Storage--><g class="link" data-entity-1="ent0004" data-entity-2="ent0003" data-link-type="dependency" data-source-line="40" id="lnk9"><path codeLine="40" d="M253.14,88.08 C246.67,103.11 238.54,120.07 229.51,134.59 C223.25,144.65 219.457,150.1699 211.907,159.5299" fill="none" id="Scheduler-to-Storage" style="stroke:#181818;stroke-width:1;"/><polygon fill="#181818" points="208.14,164.2,216.9039,159.7062,211.2792,160.3083,210.6771,154.6835,208.14,164.2" style="stroke:#181818;stroke-width:1;"/><text fill="#000000" font-family="sans-serif" font-size="13" lengthAdjust="spacing" textLength="149.208" x="238.51" y="130.6569">Ambil video (schedule)</text></g><!--link Storage to AI--><g class="link" data-entity-1="ent0003" data-entity-2="ent0005" data-link-type="dependency" data-source-line="41" id="lnk10"><path codeLine="41" d="M172.51,245.4 C172.51,267.76 172.51,290.26 172.51,315.75" fill="none" id="Storage-to-AI" style="stroke:#181818;stroke-width:1;"/><polygon fill="#181818" points="172.51,321.75,176.51,312.75,172.51,316.75,168.51,312.75,172.51,321.75" style="stroke:#181818;stroke-width:1;"/><text fill="#000000" font-family="sans-serif" font-size="13" lengthAdjust="spacing" textLength="114.1372" x="173.51" y="288.2569">Input video batch</text></g><!--link AI to DB--><g class="link" data-entity-1="ent0005" data-entity-2="ent0006" data-link-type="dependency" data-source-line="42" id="lnk11"><path codeLine="42" d="M172.51,451.95 C172.51,476.56 172.51,498.46 172.51,522.26" fill="none" id="AI-to-DB" style="stroke:#181818;stroke-width:1;"/><polygon fill="#181818" points="172.51,528.26,176.51,519.26,172.51,523.26,168.51,519.26,172.51,528.26" style="stroke:#181818;stroke-width:1;"/><text fill="#000000" font-family="sans-serif" font-size="13" lengthAdjust="spacing" textLength="135.0845" x="173.51" y="494.7369">Simpan hasil analitik</text></g><!--link DB to Dashboard--><g class="link" data-entity-1="ent0006" data-entity-2="ent0007" data-link-type="dependency" data-source-line="43" id="lnk12"><path codeLine="43" d="M172.51,642.24 C172.51,666.71 172.51,689.11 172.51,712.55" fill="none" id="DB-to-Dashboard" style="stroke:#181818;stroke-width:1;"/><polygon fill="#181818" points="172.51,718.55,176.51,709.55,172.51,713.55,168.51,709.55,172.51,718.55" style="stroke:#181818;stroke-width:1;"/><text fill="#000000" font-family="sans-serif" font-size="13" lengthAdjust="spacing" textLength="101.1943" x="173.51" y="684.9269">Tampilkan data</text></g><?plantuml-src NL7BReCm4Bpp5TjBbHoYtZbKIe16KQCgIb3kYzc0XS78DetQgl_UnIJGSF9wTcRszPJJHJO4noHArn_RVG92eRL1C04HrcGGVWA0zo4yovoqCxfXQ15Xwpf30xWCVlzBJquRBCXhVVwEzCAz5gZW1IAbktmk52NbdIBZfHjqefomNfmQMHISFXWjo5hP53E7zSvB-Paea3G53ylm2WwaMqKGaoFXf1zb1Myevj0MlmaIwsID8vOQ51NxFLQCDqF51jMNay92Z0upj7JNN2vIUD03PqbN7c3ynrTI2b9PqymMRPbfDBbtdtxFSAHM6zVtuHlb0hBouQwniYXTxtCxtchrEXuZP665DHjOMRVOm6T_cM1Q-IDvNMTI3HnOs1jf6Tm9FPcN77BHjdCtNjOVB62up_9UGZWDfKgqR8Qy8kcuMKvvnZXK22dMhLGLStFUp1y0?></g></svg>